<?xml version="1.0" encoding="utf-8"?>
<!-- Generator: Adobe Illustrator 26.5.0, SVG Export Plug-In . SVG Version: 6.00 Build 0)  -->
<svg version="1.1" baseProfile="tiny" id="Layer_1" xmlns="http://www.w3.org/2000/svg" xmlns:xlink="http://www.w3.org/1999/xlink"
	 x="0px" y="0px" viewBox="0 0 1024 281" overflow="visible" xml:space="preserve">
<g>
	<g>
		<g>
			<linearGradient id="SVGID_1_" gradientUnits="userSpaceOnUse" x1="92.2453" y1="164.393" x2="310.4791" y2="68.7858">
				<stop  offset="1.194678e-03" style="stop-color:#546BBB"/>
				<stop  offset="0.3243" style="stop-color:#5489C3"/>
				<stop  offset="1" style="stop-color:#53C5D2"/>
			</linearGradient>
			<path fill="url(#SVGID_1_)" d="M283.7,6.1C262.1-6.5,234.5,1,222,22.8l-68.9,120.6L84.3,22.8c-0.3-0.4-0.6-0.8-0.9-1.2l3.9,189
				c1.9,3.4,3,5.3,3,5.3l23.7,41.5l0.2-0.1c3.8,6.7,9.2,12.6,16.4,16.8c21.6,12.6,49.2,5.1,61.7-16.7l108-189
				C312.7,46.6,305.3,18.7,283.7,6.1z"/>
			
				<linearGradient id="SVGID_00000049918525721697509150000014633000569886556073_" gradientUnits="userSpaceOnUse" x1="237.836" y1="206.0186" x2="299.4364" y2="267.6191">
				<stop  offset="0" style="stop-color:#52BACF"/>
				<stop  offset="0.6503" style="stop-color:#5366BA"/>
				<stop  offset="1" style="stop-color:#543DB0"/>
			</linearGradient>
			<ellipse fill="url(#SVGID_00000049918525721697509150000014633000569886556073_)" cx="267.2" cy="235.4" rx="45.2" ry="45.6"/>
		</g>
	</g>
	
		<linearGradient id="SVGID_00000177449581432679896210000005187527617517987985_" gradientUnits="userSpaceOnUse" x1="-36.6144" y1="199.1442" x2="59.3124" y2="145.2816">
		<stop  offset="0" style="stop-color:#51C7D2"/>
		<stop  offset="1" style="stop-color:#4755B4"/>
	</linearGradient>
	<path fill="url(#SVGID_00000177449581432679896210000005187527617517987985_)" d="M0.2,44.1c0,0.5-0.1,1-0.1,1.5v189.7
		C0,260.6,20.2,281,45.2,281c24.9,0,45.2-20.4,45.2-45.6v-26.7C90.3,208.7,0.1,46.8,0.2,44.1z"/>
	
		<linearGradient id="SVGID_00000018959395925221118590000018064879959097694354_" gradientUnits="userSpaceOnUse" x1="29.8066" y1="126.1143" x2="116.8384" y2="77.2461">
		<stop  offset="0" style="stop-color:#8B98E2"/>
		<stop  offset="0.3549" style="stop-color:#8093DC"/>
		<stop  offset="1" style="stop-color:#8093DC"/>
	</linearGradient>
	<path fill="url(#SVGID_00000018959395925221118590000018064879959097694354_)" d="M83.4,21.6C65.1-10.5,13.2-4.7,2.6,30.9
		c-4.2,12.3-3.2,25.8,3.4,37.5c0,0,84.3,147.5,84.3,147.5V45.6C90.3,36.8,87.7,28.6,83.4,21.6z"/>
</g>
<g>
	<path fill="#31006F" d="M463.3,75.6c-1.9-1.8-4.6-2.7-8-2.7h-18.4c-0.4-7.9,0.8-17.7,5.6-21.9c3.8-3.8,9.7-5.9,18-6.5
		c5.9,0.2,9.8-2.4,11.1-8.4c1.6-6.8-3-13.9-10.6-12.6c0,0-7.4,0.7-7.4,0.7c-29,2.9-44,18.3-43.8,48.8c-8.8,0.1-20.9-2.1-20.8,10.6
		c0,12.6,12,10.5,20.8,10.6v76.5c-0.1,9,4.8,14.5,13.6,14.4c9,0,13.4-4.8,13.4-14.4V94.1h18.4c3.5,0,6.1-0.9,8-2.8
		C467,87.9,467,78.9,463.3,75.6z"/>
	<path fill="#31006F" d="M546.9,77.7c-13.6-8.2-35.9-9.1-50.9-3c-21.6,8.4-32.2,30.2-31.9,53.4c-1,44.5,36.8,67.7,76.5,53.6
		C581.1,166.5,583.4,98.2,546.9,77.7z M541.8,148c-6.2,18.1-31.7,21.7-43,7c-4.9-6.1-7.4-15.1-7.4-27c-0.5-18.3,7.7-36.2,26.9-35.9
		C545.4,91.5,549.6,127.4,541.8,148z"/>
	<path fill="#31006F" d="M653.2,73c-1.8-1.9-4.2-2.7-7.3-2.4c-16.1,1.7-27.5,7.4-33.4,21.9c0.4-10.8,0-21.3-13.2-21.4
		c-8.7,0-13.3,5.3-13.2,14.2c0,0,0,85.3,0,85.3c0,9.1,4.8,14.5,13.9,14.4c9.1,0,13.7-5.3,13.6-14.4c0,0,0-46.7,0-46.7
		c0-8.6,2.2-15.2,6.7-20c4.9-5.8,15.5-8.5,24.7-8.9C656.8,94.5,659.4,80.7,653.2,73z"/>
	<path fill="#31006F" d="M808.7,75.6c-17.9-10.9-46.7-3.7-55.5,16.6c-8.7-29.3-51.5-27.7-64-2.4c0.3-5-0.1-12.2-3.5-15.1
		c-4.2-4.8-15.3-4.8-19.5,0c-2.3,2.4-3.5,5.9-3.5,10.6c0,0,0,85.3,0,85.3c0,9,4.5,14.5,13.4,14.4c9.1,0,13.6-4.8,13.6-14.4v-48.5
		c-0.1-16,6.7-29.2,22.8-29.3c14.6,0.3,17,9.9,17.3,24.4c0,0,0,53.5,0,53.5c-0.1,9,4.8,14.5,13.6,14.4c8.9,0,13.5-5.5,13.4-14.4
		c0,0,0-48.5,0-48.5c0-9.2,2-16.4,6.1-21.6c5.9-9,24.2-11,30.2-1.9c2.7,3.9,4,10.1,4,18.5c0,0,0,53.5,0,53.5c0,4.7,1.2,8.2,3.5,10.7
		c4.2,5,15.8,4.9,20,0c2.4-2.5,3.6-6.1,3.6-10.7V116C824.2,99.1,821.7,84.4,808.7,75.6z"/>
	<path fill="#31006F" d="M914.7,75.6c-11.2-5.6-28.3-6.2-42.5-3.2c-6.1,1.2-12.5,3.2-19.2,6.1c-5.1,1.8-7.5,6.6-7.6,11.5
		c-0.2,7.4,6.8,12.9,13.9,8.8c5.3-2.6,10.4-4.4,15.3-5.4c9.4-2.2,23.7-3,29.6,3.4c4.2,3.6,5.2,13.6,4.8,21
		c-23.2,0.5-49.7-1.2-63.9,13.4c-7.8,8.7-8,27-1,37.1c13.6,22.2,55.4,24.5,65.3-2.5c-0.2,5.1,0,12.4,3.4,15.5c4,4.9,14.8,5,18.7,0
		c2.2-2.5,3.3-6.1,3.3-10.7v-54.2C934.6,98.1,930.3,83.6,914.7,75.6z M905.7,153.1c-5.7,12.8-25.2,17.6-35.3,8.4
		c-5.5-4.8-7-16.1-1.6-21.3c9-7.3,26.7-5.6,40.2-6C909.2,140.5,908.7,147.9,905.7,153.1z"/>
	<path fill="#31006F" d="M1022.3,162.4c-4.4-4.1-10.2,0.7-15.8-0.1c-6.8,0-11.7-1.8-14.7-5.4s-4.6-9-4.6-16.3V94.1h23
		c6.7,0.1,10.9-3.9,10.8-10.6c0-7-4-10.6-10.8-10.6c0,0-23,0-23,0V52.4c0-9-4.5-14.2-13.4-14.2c-8.9,0-13.7,5.2-13.7,14.2
		c0,0,0,20.5,0,20.5c-8.9,0.2-22.3-2.6-22.1,10.6c0,13.2,13.2,10.4,22.1,10.6c1.1,16.1-3.2,58.2,4.6,71.9
		c7.1,14.5,20.9,19.4,37.5,19.5c6.3-0.6,17.7-0.5,20.5-7.3C1024.4,174.5,1024.7,165,1022.3,162.4z"/>
</g>
<g>
	<path fill="#6286B4" d="M402.2,250.8h0.1l8.3-28.6h5.5l8.3,28.6h0.1l7.8-28.6h5.3l-10.5,36H422l-8.6-28.9h-0.1l-8.6,28.9h-5.2
		l-10.5-36h5.4L402.2,250.8z"/>
	<path fill="#6286B4" d="M458,253.7h18.6v4.5H453v-36h22.8v4.4H458v10.8h16.8v4.3H458V253.7z"/>
	<path fill="#6286B4" d="M493.8,222.2c5.1,0.4,15.5-1.2,19.9,2c5.7,3.6,4.2,13.6-2.7,14.9v0.1c10.8,0.9,9.9,16.9-0.3,18.3
		c-3.4,1.1-13.2,0.5-16.9,0.6V222.2z M498.8,237.4c4.5-0.1,13.5,1.3,13.5-5.6c0-6.8-8.8-5.2-13.5-5.4V237.4z M498.8,253.9
		c5.1-0.2,14.9,1.4,15.1-6.2c0.1-7.7-9.9-5.8-15.1-6V253.9z"/>
	<path fill="#6286B4" d="M554.3,228.8c-3.7-6.1-16.8-3.3-13.3,5c3.9,5.2,13.1,3.4,16.2,9.9c6.1,14.3-15.4,20.6-23.1,10.1l3.9-3.3
		c4.7,8.8,21.7,2,12.6-6.5c-3.7-2.3-8.9-2.5-12.3-5.5c-11.2-12.7,10.6-23.5,19.5-13.1L554.3,228.8z"/>
	<path fill="#6286B4" d="M580.8,258.1h-5v-36h5V258.1z"/>
	<path fill="#6286B4" d="M612.4,258.1h-5v-31.5H596v-4.4h27.8v4.4h-11.4V258.1z"/>
	<path fill="#6286B4" d="M644.1,253.7h18.6v4.5h-23.6v-36h22.8v4.4h-17.8v10.8h16.8v4.3h-16.8V253.7z"/>
	<path fill="#6286B4" d="M703,222.2c5.1,0.4,15.5-1.2,19.9,2c5.7,3.6,4.2,13.6-2.7,14.9v0.1c10.8,0.9,9.9,16.9-0.3,18.3
		c-3.4,1.1-13.2,0.5-16.9,0.6V222.2z M708,237.4c4.5-0.1,13.5,1.3,13.5-5.6c0-6.8-8.8-5.2-13.5-5.4V237.4z M708,253.9
		c5.1-0.2,14.9,1.4,15.1-6.2c0.1-7.7-9.9-5.8-15.1-6V253.9z"/>
	<path fill="#6286B4" d="M759.4,259.1c-18.8,0.9-13-25.4-13.8-36.9h5c1.4,8-5.1,32.9,8.8,32.4c14,0.6,7.4-24.4,8.8-32.4h5
		C772.4,233.7,778.2,259.9,759.4,259.1z"/>
	<path fill="#6286B4" d="M797.1,258.1h-5v-36h5V258.1z"/>
	<path fill="#6286B4" d="M821.3,253.7h15.9v4.5h-20.9v-36h5V253.7z"/>
	<path fill="#6286B4" d="M852.6,222.2c13.3-0.9,31.6,0,31.4,18c0.1,17.8-18.2,18.9-31.4,18V222.2z M857.5,253.7
		c9.3,1.1,21.6-1.8,21.1-13.6c0.6-11.9-11.7-14.6-21.1-13.6V253.7z"/>
	<path fill="#6286B4" d="M906.3,253.7h18.6v4.5h-23.6v-36h22.8v4.4h-17.8v10.8h16.8v4.3h-16.8V253.7z"/>
	<path fill="#6286B4" d="M947.1,258.1h-5v-36c5.6,0.3,15.5-1.2,20.3,2.2c7,4.8,3.6,16.6-4.9,17.2l10,16.5h-6l-9-16h-5.3V258.1z
		 M947.1,237.9c4.8-0.1,14,1.3,14.1-5.8c-0.1-7.1-9.4-5.5-14.1-5.7V237.9z"/>
</g>
</svg>
