<?xml version="1.0" encoding="utf-8"?>
<!-- Generator: Adobe Illustrator 26.5.0, SVG Export Plug-In . SVG Version: 6.00 Build 0)  -->
<svg version="1.1" id="Layer_1" xmlns="http://www.w3.org/2000/svg" xmlns:xlink="http://www.w3.org/1999/xlink" x="0px" y="0px"
	 viewBox="0 0 512.4 131.3" enable-background="new 0 0 512.4 131.3" xml:space="preserve">
<g>
	<g>
		<path fill="#1226AA" d="M231.7,49c-0.9-0.9-2.3-1.3-4-1.3l-9.2,0l0-2.3c0-3.8,0.9-6.6,2.8-8.5c1.9-1.9,4.9-2.9,9-3.2l1.5-0.1
			c1.1-0.1,2-0.5,2.7-1.3c0.7-0.8,1.1-1.7,1.4-2.7c0.2-1,0.2-2.1-0.1-3.1c-0.3-1-0.9-1.8-1.7-2.5c-0.9-0.6-2-0.9-3.5-0.7l-3.7,0.3
			c-7.1,0.7-12.5,2.9-16.3,6.8c-3.8,3.8-5.6,9.6-5.6,17.3l0,0.1l-5,0c-1.7,0-3.1,0.4-4,1.3c-0.9,0.9-1.4,2.2-1.4,3.9
			c0,1.6,0.5,2.9,1.4,3.9c0.9,0.9,2.3,1.4,4,1.4l5,0l0,37.9c0,2.3,0.6,4.1,1.8,5.3c1.2,1.2,2.9,1.8,5,1.8c4.5,0,6.7-2.4,6.7-7.2
			l0-37.9l9.2,0c1.7,0,3.1-0.5,4-1.4c0.9-0.9,1.4-2.2,1.4-3.9C233.1,51.2,232.6,49.9,231.7,49z"/>
		<path fill="#1226AA" d="M273.6,50c-4.1-2.3-8.8-3.5-14.3-3.5c-4.1,0-7.8,0.7-11.2,2c-3.3,1.3-6.2,3.2-8.6,5.7
			c-2.4,2.5-4.2,5.5-5.5,9c-1.3,3.5-1.9,7.4-1.9,11.8c0,5.8,1.1,10.9,3.4,15.2c2.2,4.3,5.4,7.6,9.4,9.9c4,2.3,8.8,3.5,14.3,3.5
			c4.1,0,7.8-0.7,11.2-2c3.3-1.3,6.2-3.2,8.6-5.7c2.4-2.5,4.2-5.5,5.5-9c1.3-3.5,1.9-7.5,1.9-11.9c0-5.8-1.1-10.8-3.4-15.1
			C280.8,55.6,277.6,52.3,273.6,50z M271,84.8c-1.1,2.6-2.7,4.6-4.7,6c-2,1.3-4.4,2-7,2c-4.1,0-7.3-1.5-9.8-4.5
			c-2.5-3-3.7-7.5-3.7-13.4c0-4,0.6-7.2,1.7-9.9c1.1-2.6,2.7-4.6,4.7-5.9c2-1.3,4.4-2,7-2c4,0,7.3,1.5,9.8,4.4
			c2.5,2.9,3.7,7.4,3.7,13.4C272.7,78.9,272.2,82.2,271,84.8z"/>
		<path fill="#1226AA" d="M326.7,47.7c-0.9-0.9-2.1-1.3-3.6-1.2c-4.9,0.5-8.9,1.8-11.8,4.1c-2.1,1.7-3.8,3.9-4.9,6.7l0-3.6
			c0-2.3-0.6-4.1-1.7-5.3c-1.2-1.2-2.8-1.8-4.9-1.8c-2.1,0-3.7,0.6-4.9,1.8c-1.2,1.2-1.7,2.9-1.7,5.3l0,42.3c0,2.3,0.6,4.1,1.8,5.3
			c1.2,1.2,2.9,1.8,5.2,1.8c2.2,0,3.9-0.6,5.1-1.8c1.2-1.2,1.7-3,1.7-5.3l0-23.1c0-4.3,1.1-7.5,3.4-9.9c2.2-2.4,5.6-3.8,10-4.2
			l2.4-0.2c2-0.2,3.4-0.9,4.4-2.1c1-1.2,1.4-2.7,1.2-4.5C328.2,50,327.7,48.6,326.7,47.7z"/>
		<path fill="#1226AA" d="M404.6,48.9c-2.6-1.6-6-2.5-10-2.5c-4.3,0-8.2,1.1-11.5,3.4c-2.7,1.9-4.8,4.3-6.3,7.3
			c-1.1-3.3-2.8-5.8-5.1-7.5c-2.7-2.1-6.3-3.1-10.5-3.1c-4.2,0-7.8,1.1-10.8,3.3c-2.3,1.6-4.1,3.7-5.5,6.3l0-2.2
			c0-2.3-0.6-4.1-1.7-5.3c-1.2-1.2-2.8-1.8-4.9-1.8c-2.1,0-3.7,0.6-4.9,1.8c-1.2,1.2-1.7,2.9-1.7,5.3l0,42.3c0,2.3,0.6,4.1,1.7,5.3
			c1.2,1.2,2.8,1.8,5,1.8c4.6,0,6.8-2.4,6.8-7.2l0-24c0-4.5,1-8.1,3-10.7c2-2.6,4.8-3.9,8.3-3.9c3.1,0,5.3,1,6.7,2.9
			c1.3,1.9,2,5,2,9.2l0,26.5c0,2.3,0.6,4.1,1.8,5.3c1.2,1.2,2.9,1.8,5,1.8c2.2,0,3.8-0.6,5-1.8c1.2-1.2,1.7-3,1.7-5.3l0-24
			c0-4.5,1-8.1,3-10.7c2-2.6,4.8-3.9,8.3-3.9c3.2,0,5.4,1,6.8,2.9c1.3,1.9,2,5,2,9.2l0,26.5c0,2.3,0.6,4.1,1.7,5.3
			c1.2,1.2,2.8,1.8,5,1.8c2.2,0,3.8-0.6,5-1.8s1.8-3,1.8-5.3l0-27.1c0-5.1-0.7-9.3-2-12.6C409.2,53,407.2,50.5,404.6,48.9z"/>
		<path fill="#1226AA" d="M457.6,48.8c-3.4-1.6-7.6-2.5-12.9-2.5c-2.5,0-5.3,0.3-8.4,0.9c-3.1,0.6-6.3,1.6-9.6,3
			c-1.4,0.5-2.3,1.3-2.9,2.4c-0.6,1.1-0.9,2.2-0.9,3.3s0.3,2.1,0.9,3.1c0.6,0.9,1.4,1.5,2.4,1.8c1,0.3,2.3,0.1,3.6-0.6
			c2.7-1.3,5.2-2.2,7.6-2.7c2.4-0.5,4.7-0.8,6.8-0.8c3.8,0,6.4,0.8,8,2.5c1.6,1.6,2.4,4.3,2.4,8.1l0,2.3l-3.8,0
			c-7.7,0-13.8,0.5-18.3,1.6c-4.6,1-7.8,2.7-9.9,5.1c-2,2.4-3,5.5-3,9.6c0,3.3,0.9,6.2,2.6,8.8c1.7,2.6,4.1,4.7,7.1,6.2
			c3,1.5,6.4,2.3,10.2,2.3c2.9,0,5.5-0.5,7.7-1.6c2.2-1,4.1-2.5,5.6-4.4c0.9-1.1,1.6-2.4,2.1-3.8l0,2.4c0,2.3,0.6,4.1,1.7,5.3
			c1.1,1.2,2.7,1.8,4.7,1.8c2,0,3.6-0.6,4.7-1.8s1.6-3,1.6-5.3l0-26.8c0-5.2-0.8-9.5-2.5-12.8C463.5,53,461,50.5,457.6,48.8z
			 M453.2,87.2c-1.1,2-2.5,3.6-4.4,4.8c-1.8,1.2-4,1.7-6.3,1.7c-3,0-5.3-0.8-6.9-2.3c-1.7-1.6-2.5-3.6-2.5-6c0-1.9,0.6-3.4,1.7-4.5
			c1.1-1.1,3-1.8,5.7-2.3c2.7-0.4,6.3-0.7,10.7-0.7l3.7,0l0,2.5C454.8,82.9,454.2,85.2,453.2,87.2z"/>
		<path fill="#1226AA" d="M511.5,91.8c-0.6-0.6-1.3-0.9-2.2-0.8c-0.7,0.1-1.6,0.2-2.5,0.4c-0.9,0.2-2,0.3-3.3,0.3
			c-3.4,0-5.9-0.9-7.4-2.7c-1.5-1.8-2.3-4.5-2.3-8l0-23l11.5,0c1.7,0,3.1-0.5,4-1.4c0.9-0.9,1.4-2.2,1.4-3.9c0-1.7-0.5-3-1.4-3.9
			c-0.9-0.9-2.3-1.3-4-1.3l-11.5,0l0-10.2c0-2.3-0.6-4.1-1.7-5.3c-1.2-1.2-2.8-1.8-5-1.8c-2.2,0-3.8,0.6-5,1.8
			c-1.2,1.2-1.8,2.9-1.8,5.3l0,10.2l-5.6,0c-1.7,0-3.1,0.4-4,1.3c-0.9,0.9-1.4,2.2-1.4,3.9c0,1.6,0.5,2.9,1.4,3.9
			c0.9,0.9,2.3,1.4,4,1.4l5.6,0l0,23.8c0,4.7,0.8,8.6,2.3,11.8c1.5,3.2,3.9,5.6,7,7.2c3.1,1.6,7.1,2.5,11.8,2.5c1.2,0,2.5-0.1,4-0.4
			c1.5-0.3,2.7-0.5,3.7-0.8c1.2-0.4,2.1-1.2,2.5-2.4c0.5-1.2,0.7-2.5,0.7-4C512.4,93.7,512.1,92.4,511.5,91.8z"/>
	</g>
	<g>
		<path fill="#FFFFFF" d="M147.7,55.7L123,13c-3.5-6.1-10-9.8-17.1-9.8L22.9,3.3C12,3.3,3.2,12.1,3.2,23l0.1,85.4
			c0,10.9,8.8,19.7,19.7,19.7L106,128c7,0,13.5-3.8,17-9.9l24.6-42.7C151.2,69.3,151.2,61.8,147.7,55.7z"/>
		
			<linearGradient id="SVGID_1_" gradientUnits="userSpaceOnUse" x1="-4.837839e-02" y1="112.3291" x2="128.2621" y2="18.6167" gradientTransform="matrix(1 -7.338906e-04 7.337229e-04 1 -0.3958 0.7044)">
			<stop  offset="0" style="stop-color:#0047BA"/>
			<stop  offset="1" style="stop-color:#1ECAD3"/>
		</linearGradient>
		<path fill="url(#SVGID_1_)" d="M150.4,54.1l-24.7-42.7C121.7,4.4,114.1,0,105.9,0L22.9,0.1C10.2,0.1,0,10.3,0,23l0.1,85.4
			c0,12.6,10.3,22.9,22.9,22.9l83.1-0.1c8.2,0,15.7-4.4,19.8-11.5L150.5,77C154.5,69.9,154.5,61.2,150.4,54.1z M70.4,100.6
			c-3.9,0.4-7.8-1.5-9.9-5L48.8,75.5l0,15c0,5.6-4.6,10.2-10.2,10.2c-5.6,0-10.2-4.6-10.2-10.2l0-53.1l1,0.2c-0.1-2,0.5-4,1.7-5.7
			c3.6-5.3,12-5,15.3,0.5l0.8-0.4c0.2,0.2,21.9,37.8,22.1,38.1l21.9-37.8c2.8-4.9,9.1-6.6,14-3.7c4.9,2.8,6.6,9.1,3.7,14L78.2,95.6
			C76.5,98.5,73.6,100.3,70.4,100.6z M101.4,100.7c-5.6,0-10.2-4.6-10.2-10.2c0-5.6,4.6-10.2,10.2-10.2c5.6,0,10.2,4.6,10.2,10.2
			C111.6,96.1,107,100.7,101.4,100.7z"/>
		<path fill="#1ECAD3" d="M47.2,31.9c-3.6-6.1-12.9-6.4-17-0.5c-2.3,3.2-2.6,7.6-0.5,11.1c0,0,19.1,32.9,19.1,32.9l0-38.1
			C48.8,35.3,48.2,33.5,47.2,31.9z"/>
	</g>
</g>
</svg>
